<!-- Generator: Adobe Illustrator 25.2.3, SVG Export Plug-In  -->
<svg version="1.1" xmlns="http://www.w3.org/2000/svg" xmlns:xlink="http://www.w3.org/1999/xlink" x="0px" y="0px" width="12.49px"
	 height="12.49px" viewBox="0 0 12.49 12.49" style="overflow:visible;enable-background:new 0 0 12.49 12.49;"
	 xml:space="preserve">
<style type="text/css">
	.st0{fill:#CC0200;}
</style>
<defs>
</defs>
<path class="st0" d="M9.07,0.59L6.24,3.41L3.41,0.59c-0.78-0.78-2.05-0.78-2.83,0s-0.78,2.05,0,2.83l2.83,2.83L0.59,9.07
	c-0.78,0.78-0.78,2.05,0,2.83c0.78,0.78,2.05,0.78,2.83,0l2.83-2.83l2.83,2.83c0.78,0.78,2.05,0.78,2.83,0
	c0.78-0.78,0.78-2.05,0-2.83L9.07,6.24l2.83-2.83c0.78-0.78,0.78-2.05,0-2.83C11.12-0.2,9.85-0.2,9.07,0.59z"/>
</svg>
